<svg width="32" height="31" viewBox="0 0 32 31" fill="none" xmlns="http://www.w3.org/2000/svg">
<path d="M9.79743 5.00114C9.296 6.20457 8.66086 7.47486 8.05914 8.44428H4.31514C4.95029 7.30771 5.51857 6.17114 5.98657 5.00114H9.79743ZM12.3714 13.8263H9.36286V10.4834H12.3714V13.8263ZM12.3714 19.2083H9.36286V15.7651H12.3714V19.2083ZM4.54914 13.8263V10.4834H7.45743V13.8263H4.54914ZM7.45743 15.7651V19.2083H4.54914V15.7651H7.45743ZM2.47657 11.2857V21.2809H14.5109V8.44428H10.3991C11.2683 7.04028 12.1374 5.40228 12.806 3.86457L11.3351 2.89514L10.9006 3.02885H6.75543C7.05629 2.12628 7.35714 1.22371 7.59114 0.354569L5.28457 0.0202835C4.51571 3.16257 2.87771 7.27428 0.303714 10.3831C0.838572 10.6506 1.64086 11.3191 2.042 11.8206L2.47657 11.2857ZM1.94171 30.574C3.64657 28.936 4.28171 26.0277 4.616 23.2197L2.81086 22.7851C2.54343 25.426 1.84143 28.0669 0.303714 29.6046L1.94171 30.574ZM5.81943 23.0526C6.15372 25.0249 6.32086 27.5654 6.22057 29.2034L8.02572 29.0029C8.09257 27.3314 7.92543 24.8243 7.52429 22.8186L5.81943 23.0526ZM8.89486 23.0191C9.59686 24.8911 10.1986 27.298 10.3657 28.9026L12.104 28.468C11.9034 26.8969 11.3017 24.49 10.4994 22.6514L8.89486 23.0191ZM12.0037 22.7183C12.9731 24.3897 13.9091 26.6629 14.3103 28.1671L15.9817 27.4651C15.5806 25.9943 14.6111 23.788 13.6083 22.1166L12.0037 22.7183ZM27.6483 18.172V21.5149H19.2577V18.172H27.6483ZM19.2577 26.9971V23.5206H27.6483V26.9971H19.2577ZM16.9846 30.6074H19.2577V29.1366H27.6483V30.4403H29.9883V16.0326H16.9846V30.6074ZM20.7286 11.2523C18.89 11.2523 18.5891 11.0517 18.5891 10.0154V7.14057C22.4334 6.238 26.7123 5.00114 29.6206 3.59714L27.8823 1.85885C25.7094 3.02885 22.0657 4.23228 18.5891 5.13486V0.0537116H16.2826V10.0154C16.2826 12.7231 17.1517 13.4251 20.5614 13.4251H27.3474C30.1554 13.4251 30.9243 12.4223 31.2251 8.67828C30.5566 8.51114 29.5871 8.14343 29.0523 7.74228C28.9186 10.7509 28.6511 11.2523 27.2137 11.2523H20.7286Z" fill="#232323"/>
</svg>
